HIERARCHY
ROOT hip
{
  OFFSET 0 0 0
  CHANNELS 6 Xposition Yposition Zposition Zrotation Yrotation Xrotation
  JOINT abdomen
  {
    OFFSET 0 20.6881 -0.73152
    CHANNELS 3 Zrotation Xrotation Yrotation
    JOINT chest
    {
      OFFSET 0 11.7043 -0.48768
      CHANNELS 3 Zrotation Xrotation Yrotation
      JOINT neck
      {
        OFFSET 0 22.1894 -2.19456
        CHANNELS 3 Zrotation Xrotation Yrotation
        JOINT head
        {
          OFFSET -0.24384 7.07133 1.2192
          CHANNELS 3 Zrotation Xrotation Yrotation
          JOINT leftEye
          {
            OFFSET 4.14528 8.04674 8.04672
            CHANNELS 3 Zrotation Xrotation Yrotation
            End Site
            {
              OFFSET 1 0 0
            }
          }
          JOINT rightEye
          {
            OFFSET -3.6576 8.04674 8.04672
            CHANNELS 3 Zrotation Xrotation Yrotation
            End Site
            {
              OFFSET 1 0 0
            }
          }
        }
      }
      JOINT rCollar
      {
        OFFSET -2.68224 19.2634 -4.8768
        CHANNELS 3 Zrotation Xrotation Yrotation
        JOINT rShldr
        {
          OFFSET -8.77824 -1.95073 1.46304
          CHANNELS 3 Zrotation Xrotation Yrotation
          JOINT rForeArm
          {
            OFFSET -28.1742 -1.7115 0.48768
            CHANNELS 3 Zrotation Xrotation Yrotation
            JOINT rHand
            {
              OFFSET -22.5879 0.773209 7.07136
              CHANNELS 3 Zrotation Xrotation Yrotation
              JOINT rThumb1
              {
                OFFSET -1.2192 -0.487915 3.41376
                CHANNELS 3 Zrotation Xrotation Yrotation
                JOINT rThumb2
                {
                  OFFSET -3.37035 -0.52449 3.41376
                  CHANNELS 3 Zrotation Xrotation Yrotation
                  End Site
                  {
                    OFFSET -1.78271 -1.18214 1.43049
                  }
                }
              }
              JOINT rIndex1
              {
                OFFSET -7.75947 0.938293 5.60832
                CHANNELS 3 Zrotation Xrotation Yrotation
                JOINT rIndex2
                {
                  OFFSET -2.54057 -0.884171 1.56538
                  CHANNELS 3 Zrotation Xrotation Yrotation
                  End Site
                  {
                    OFFSET -1.62519 -0.234802 1.16502
                  }
                }
              }
              JOINT rMid1
              {
                OFFSET -8.24714 1.18213 3.41376
                CHANNELS 3 Zrotation Xrotation Yrotation
                JOINT rMid2
                {
                  OFFSET -3.10165 -0.590103 1.0647
                  CHANNELS 3 Zrotation Xrotation Yrotation
                  End Site
                  {
                    OFFSET -2.48547 -0.328903 0.83742
                  }
                }
              }
              JOINT rRing1
              {
                OFFSET -8.82822 0.546677 1.51678
                CHANNELS 3 Zrotation Xrotation Yrotation
                JOINT rRing2
                {
                  OFFSET -2.60934 -0.819778 -0.0198488
                  CHANNELS 3 Zrotation Xrotation Yrotation
                  End Site
                  {
                    OFFSET -2.33842 -0.294052 0.168128
                  }
                }
              }
              JOINT rPinky1
              {
                OFFSET -8.27202 -0.0477905 -0.4584
                CHANNELS 3 Zrotation Xrotation Yrotation
                JOINT rPinky2
                {
                  OFFSET -1.82734 -0.647385 -0.700984
                  CHANNELS 3 Zrotation Xrotation Yrotation
                  End Site
                  {
                    OFFSET -1.69225 -0.51767 -0.607171
                  }
                }
              }
            }
          }
        }
      }
      JOINT lCollar
      {
        OFFSET 2.68224 19.2634 -4.8768
        CHANNELS 3 Zrotation Xrotation Yrotation
        JOINT lShldr
        {
          OFFSET 8.77824 -1.95073 1.46304
          CHANNELS 3 Zrotation Xrotation Yrotation
          JOINT lForeArm
          {
            OFFSET 28.1742 -1.7115 0.48768
            CHANNELS 3 Zrotation Xrotation Yrotation
            JOINT lHand
            {
              OFFSET 22.5879 0.773209 7.07136
              CHANNELS 3 Zrotation Xrotation Yrotation
              JOINT lThumb1
              {
                OFFSET 1.2192 -0.487915 3.41376
                CHANNELS 3 Zrotation Xrotation Yrotation
                JOINT lThumb2
                {
                  OFFSET 3.37035 -0.52449 3.41376
                  CHANNELS 3 Zrotation Xrotation Yrotation
                  End Site
                  {
                    OFFSET 1.78271 -1.18214 1.43049
                  }
                }
              }
              JOINT lIndex1
              {
                OFFSET 7.75947 0.938293 5.60832
                CHANNELS 3 Zrotation Xrotation Yrotation
                JOINT lIndex2
                {
                  OFFSET 2.54057 -0.884171 1.56538
                  CHANNELS 3 Zrotation Xrotation Yrotation
                  End Site
                  {
                    OFFSET 1.62519 -0.234802 1.16502
                  }
                }
              }
              JOINT lMid1
              {
                OFFSET 8.24714 1.18213 3.41376
                CHANNELS 3 Zrotation Xrotation Yrotation
                JOINT lMid2
                {
                  OFFSET 3.10165 -0.590103 1.0647
                  CHANNELS 3 Zrotation Xrotation Yrotation
                  End Site
                  {
                    OFFSET 2.48547 -0.328903 0.83742
                  }
                }
              }
              JOINT lRing1
              {
                OFFSET 8.82822 0.546677 1.51678
                CHANNELS 3 Zrotation Xrotation Yrotation
                JOINT lRing2
                {
                  OFFSET 2.60934 -0.819778 -0.0198488
                  CHANNELS 3 Zrotation Xrotation Yrotation
                  End Site
                  {
                    OFFSET 2.33842 -0.294052 0.168128
                  }
                }
              }
              JOINT lPinky1
              {
                OFFSET 8.27202 -0.0477905 -0.4584
                CHANNELS 3 Zrotation Xrotation Yrotation
                JOINT lPinky2
                {
                  OFFSET 1.82734 -0.647385 -0.700984
                  CHANNELS 3 Zrotation Xrotation Yrotation
                  End Site
                  {
                    OFFSET 1.69225 -0.51767 -0.607171
                  }
                }
              }
            }
          }
        }
      }
    }
  }
  JOINT rButtock
  {
    OFFSET -8.77824 4.35084 1.2192
    CHANNELS 3 Zrotation Xrotation Yrotation
    JOINT rThigh
    {
      OFFSET 0 -1.70687 -2.19456
      CHANNELS 3 Zrotation Xrotation Yrotation
      JOINT rShin
      {
        OFFSET 0 -36.8199 0.73152
        CHANNELS 3 Zrotation Xrotation Yrotation
        JOINT rFoot
        {
          OFFSET 0.73152 -45.1104 -5.12064
          CHANNELS 3 Zrotation Xrotation Yrotation
          End Site
          {
            OFFSET -1.1221 -3.69964 12.103
          }
        }
      }
    }
  }
  JOINT lButtock
  {
    OFFSET 8.77824 4.35084 1.2192
    CHANNELS 3 Zrotation Xrotation Yrotation
    JOINT lThigh
    {
      OFFSET 0 -1.70687 -2.19456
      CHANNELS 3 Zrotation Xrotation Yrotation
      JOINT lShin
      {
        OFFSET 0 -36.8199 0.73152
        CHANNELS 3 Zrotation Xrotation Yrotation
        JOINT lFoot
        {
          OFFSET -0.73152 -45.1104 -5.12064
          CHANNELS 3 Zrotation Xrotation Yrotation
          End Site
          {
            OFFSET 1.1221 -3.69964 12.103
          }
        }
      }
    }
  }
}
MOTION
Frames:	9
Frame Time:	0.00833333
1.60044 84.7178 -107.289 0.0 0.0 0.0 -0.462534 -0.00207373 -0.013201 -0.127533 -0.00315845 -0.0220955 -8.67123e-15 -1.59028e-15 4.96962e-17 -2.59631e-14 3.18055e-15 1.18028e-16 -0.0 0.0 0.0 -0.0 0.0 0.0 -4.32505e-15 -1.94126e-18 1.98785e-16 -8.79211e-14 1.86361e-16 9.93923e-16 -1.55713e-12 4.61777e-13 6.36111e-15 -1.78126e-11 -4.86376e-13 4.13472e-14 -4.20193e-11 -5.81536e-14 1.33583e-13 -7.25687e-11 -1.01778e-13 2.36156e-13 -4.20131e-11 -5.4467e-14 1.33583e-13 7.73091 5.47488 0.417314 -4.20188e-11 -5.80451e-14 1.39944e-13 2.90554 0.965183 0.102902 -4.20074e-11 -5.76476e-14 1.38354e-13 10.2786 0.731801 0.0259123 -4.20203e-11 -5.80451e-14 1.43125e-13 2.22167 -0.733487 -0.20892 -4.32237e-15 -1.74713e-18 -9.93923e-17 -9.3426e-14 9.93923e-17 -9.93923e-16 -1.55579e-12 -4.70722e-13 9.54166e-15 -1.78252e-11 4.36929e-13 6.36111e-14 -4.20378e-11 -7.89738e-14 1.36764e-13 -7.25958e-11 -1.36764e-13 2.45698e-13 -4.20449e-11 -7.51406e-14 1.49486e-13 -7.73091 5.47488 -0.417314 -4.20397e-11 -7.82218e-14 1.36764e-13 -2.90554 0.965183 -0.102902 -4.20538e-11 -7.85199e-14 1.38354e-13 -10.2786 0.731801 -0.0259123 -4.20372e-11 -8.0309e-14 1.30403e-13 -2.22167 -0.733487 0.20892 -2.03217e-16 0.0 -3.88251e-19 0.172441 -2.4816 -0.025897 -0.00786798 -1.05711 -0.0680567 -0.522531 3.53839 0.132398 2.03217e-16 0.0 3.88251e-19 -0.875772 -4.26243 0.0710554 0.00283182 2.16852 0.0189639 0.527643 2.09368 -0.103285
1.74614 82.9506 -108.984 0.089 1.1621 5.1103 -0.807692 2.14248 -0.35891 0.837008 -0.912969 -0.105512 -0.445367 0.619011 0.0621341 -0.0569246 0.164088 0.227025 -0.0 0.0 0.0 -0.0 0.0 0.0 -7.89605e-15 -1.73578e-14 -8.09465e-15 22.6408 2.00812 1.17226 -3.49381 -1.46609 5.58181 0.00202777 1.0757 0.151099 1.0174e-10 -2.32062e-10 2.21789e-10 1.76707e-10 -4.01822e-10 3.82799e-10 1.0175e-10 -2.3206e-10 2.21786e-10 7.73091 5.47488 0.417314 1.01744e-10 -2.32064e-10 2.21795e-10 2.90554 0.965183 0.102902 1.01754e-10 -2.32063e-10 2.21794e-10 10.2786 0.731801 0.0259123 1.01738e-10 -2.32062e-10 2.21799e-10 2.22167 -0.733487 -0.20892 -7.96725e-15 -1.73582e-14 -8.36332e-15 -24.2115 3.44659 1.32512 5.86956 -3.10543 -8.64168 -0.000805643 0.640189 -0.0899533 7.52895e-11 -7.60368e-11 -3.00359e-11 1.3019e-10 -1.31607e-10 -5.23563e-11 7.52839e-11 -7.60339e-11 -3.00202e-11 -7.73091 5.47488 -0.417314 7.52888e-11 -7.60374e-11 -3.00349e-11 -2.90554 0.965183 -0.102902 7.52764e-11 -7.60375e-11 -3.00333e-11 -10.2786 0.731801 -0.0259123 7.52896e-11 -7.60384e-11 -3.00413e-11 -2.22167 -0.733487 0.20892 -2.03217e-16 0.0 -3.88251e-19 0.648038 -7.25958 -0.340019 0.0168995 8.86063 0.098946 -0.712457 -3.06331 -1.28246 2.03217e-16 0.0 3.88251e-19 -1.42742 -8.10221 0.705948 -0.0106449 10.3576 -0.119218 0.612516 -4.22113 0.465598
1.74052 82.9165 -108.947 0.0465 1.2102 5.2398 -1.13787 4.39864 -0.728027 1.85218 -1.87211 -0.194349 -0.921502 1.26596 0.125112 -0.114738 0.354672 0.462799 -0.0 0.0 0.0 -0.0 0.0 0.0 -1.19067e-14 -3.56827e-14 -1.7726e-14 46.4872 4.08532 2.42314 -6.86921 -2.96376 11.48 -0.00227591 2.25887 0.317488 2.62054e-10 -4.89787e-10 4.57644e-10 4.54657e-10 -8.4809e-10 7.89835e-10 2.62068e-10 -4.89785e-10 4.57639e-10 7.73091 5.47488 0.417314 2.62063e-10 -4.89791e-10 4.57649e-10 2.90554 0.965183 0.102902 2.62071e-10 -4.8979e-10 4.57649e-10 10.2786 0.731801 0.0259123 2.62051e-10 -4.89787e-10 4.57655e-10 2.22167 -0.733487 -0.20892 -1.2057e-14 -3.56836e-14 -1.79621e-14 -49.9861 7.04662 2.73527 11.0568 -6.14317 -17.8424 0.000556938 1.33031 -0.186962 2.07619e-10 -1.55819e-10 -5.81222e-11 3.58924e-10 -2.69724e-10 -1.01382e-10 2.07615e-10 -1.55817e-10 -5.81032e-11 -7.73091 5.47488 -0.417314 2.0762e-10 -1.55821e-10 -5.81203e-11 -2.90554 0.965183 -0.102902 2.07609e-10 -1.5582e-10 -5.81186e-11 -10.2786 0.731801 -0.0259123 2.07618e-10 -1.5582e-10 -5.81266e-11 -2.22167 -0.733487 0.20892 -2.03217e-16 0.0 -3.88251e-19 1.09756 -12.2869 -0.685475 -0.0227246 19.3317 0.289203 -1.27166 -10.0298 -2.81634 2.03217e-16 0.0 3.88251e-19 -1.9142 -12.1474 1.3892 0.0202696 19.015 -0.276461 0.845487 -10.8888 1.10224
1.75375 82.8334 -108.92 0.0915 1.246 5.4414 -1.41995 6.43063 -1.05622 2.75813 -2.73257 -0.272615 -1.34013 1.85702 0.186489 -0.174675 0.492233 0.681098 -0.0 0.0 0.0 -0.0 0.0 0.0 -1.50381e-14 -5.20695e-14 -2.46815e-14 67.6748 6.01425 3.5341 -9.63606 -4.23158 16.7871 -0.0109604 3.22701 0.453937 3.89259e-10 -6.96071e-10 6.651e-10 6.75258e-10 -1.20526e-09 1.14792e-09 3.89276e-10 -6.9607e-10 6.65092e-10 7.73091 5.47488 0.417314 3.89271e-10 -6.96076e-10 6.65104e-10 2.90554 0.965183 0.102902 3.89277e-10 -6.96074e-10 6.65104e-10 10.2786 0.731801 0.0259123 3.89254e-10 -6.96071e-10 6.6511e-10 2.22167 -0.733487 -0.20892 -1.5257e-14 -5.2071e-14 -2.48912e-14 -73.1191 10.3175 4.0335 14.8795 -8.47019 -26.1937 0.00361644 1.92055 -0.269995 3.09944e-10 -2.27953e-10 -9.03811e-11 5.35763e-10 -3.94548e-10 -1.5756e-10 3.09941e-10 -2.27951e-10 -9.03595e-11 -7.73091 5.47488 -0.417314 3.09946e-10 -2.27956e-10 -9.03783e-11 -2.90554 0.965183 -0.102902 3.09937e-10 -2.27955e-10 -9.03767e-11 -10.2786 0.731801 -0.0259123 3.09943e-10 -2.27955e-10 -9.03847e-11 -2.22167 -0.733487 0.20892 -2.03217e-16 0.0 -3.88251e-19 1.43573 -16.8135 -1.00302 -0.125395 28.6953 0.489505 -2.10013 -16.2261 -4.27683 2.03217e-16 0.0 3.88251e-19 -2.26618 -15.7742 2.03152 0.092979 26.7352 -0.436379 1.17138 -16.8444 1.67116
1.78029 82.7661 -108.879 0.1955 1.2885 5.6699 -1.63715 7.90312 -1.27656 3.39672 -3.34633 -0.324196 -1.61252 2.30838 0.243798 -0.236581 0.497269 0.855682 -0.0 0.0 0.0 -0.0 0.0 0.0 -1.59713e-14 -6.36109e-14 -2.49475e-14 82.3843 7.58193 4.28026 -11.4643 -5.07997 20.5777 -0.0164367 3.6577 0.514763 4.3369e-10 -7.73752e-10 8.01557e-10 7.52485e-10 -1.33969e-09 1.38365e-09 4.33708e-10 -7.73751e-10 8.01547e-10 7.73091 5.47488 0.417314 4.33703e-10 -7.73757e-10 8.0156e-10 2.90554 0.965183 0.102902 4.33708e-10 -7.73755e-10 8.0156e-10 10.2786 0.731801 0.0259123 4.33685e-10 -7.73751e-10 8.01567e-10 2.22167 -0.733487 -0.20892 -1.62329e-14 -6.3613e-14 -2.51463e-14 -89.3169 12.7855 5.0003 17.1634 -9.81453 -32.1691 0.00627429 2.26107 -0.317939 3.37259e-10 -2.80967e-10 -1.33071e-10 5.82864e-10 -4.86138e-10 -2.31618e-10 3.37256e-10 -2.80966e-10 -1.33049e-10 -7.73091 5.47488 -0.417314 3.37261e-10 -2.80971e-10 -1.33068e-10 -2.90554 0.965183 -0.102902 3.37254e-10 -2.8097e-10 -1.33066e-10 -10.2786 0.731801 -0.0259123 3.37258e-10 -2.80969e-10 -1.33074e-10 -2.22167 -0.733487 0.20892 -2.03217e-16 0.0 -3.88251e-19 1.61447 -20.0904 -1.21941 -0.246026 35.2906 0.660681 -2.88192 -20.5376 -5.38277 2.03217e-16 0.0 3.88251e-19 -2.46597 -18.3613 2.52473 0.174078 32.1129 -0.565186 1.4304 -21.0272 1.99695
1.77044 82.7225 -108.842 0.1496 1.2902 5.9003 -1.78421 8.58716 -1.34052 3.66155 -3.62117 -0.337466 -1.66919 2.57886 0.298007 -0.30976 0.309127 0.971512 -0.0 0.0 0.0 -0.0 0.0 0.0 -1.31996e-14 -7.2916e-14 -1.25087e-14 88.1026 8.69735 4.49603 -12.2295 -5.45028 22.2261 -0.0116938 3.2521 0.457489 3.48217e-10 -6.5746e-10 8.88954e-10 6.04842e-10 -1.1381e-09 1.5352e-09 3.48232e-10 -6.57459e-10 8.88944e-10 7.73091 5.47488 0.417314 3.48228e-10 -6.57463e-10 8.88955e-10 2.90554 0.965183 0.102902 3.48233e-10 -6.57462e-10 8.88954e-10 10.2786 0.731801 0.0259123 3.48213e-10 -6.57457e-10 8.8896e-10 2.22167 -0.733487 -0.20892 -1.34691e-14 -7.29189e-14 -1.27265e-14 -95.6515 14.1645 5.4782 18.0432 -10.3291 -34.6953 0.00637592 2.23609 -0.314429 2.43381e-10 -3.39634e-10 -2.10139e-10 4.20314e-10 -5.87183e-10 -3.6495e-10 2.43376e-10 -3.39634e-10 -2.1012e-10 -7.73091 5.47488 -0.417314 2.43381e-10 -3.39637e-10 -2.10136e-10 -2.90554 0.965183 -0.102902 2.43378e-10 -3.39636e-10 -2.10135e-10 -10.2786 0.731801 -0.0259123 2.43382e-10 -3.39635e-10 -2.10143e-10 -2.22167 -0.733487 0.20892 -2.03217e-16 0.0 -3.88251e-19 1.63437 -21.6098 -1.26265 -0.308908 37.9795 0.740535 -3.25593 -22.2148 -5.88053 2.03217e-16 0.0 3.88251e-19 -2.53908 -19.5084 2.77479 0.213899 34.2148 -0.619642 1.44412 -22.7193 1.90852
1.75273 82.696 -108.811 0.0797 1.2415 6.0983 -1.88735 8.70849 -1.29163 3.66008 -3.65362 -0.323356 -1.57199 2.71944 0.349863 -0.389826 -0.0166222 1.04528 -0.0 0.0 0.0 -0.0 0.0 0.0 -7.81154e-15 -8.04071e-14 8.84592e-15 87.423 9.4898 4.32928 -12.2947 -5.51241 22.3373 -0.00314088 2.2531 0.316698 1.70624e-10 -4.03279e-10 9.38911e-10 2.97728e-10 -6.97631e-10 1.62248e-09 1.70632e-10 -4.03278e-10 9.389e-10 7.73091 5.47488 0.417314 1.70629e-10 -4.0328e-10 9.38908e-10 2.90554 0.965183 0.102902 1.70635e-10 -4.03279e-10 9.38906e-10 10.2786 0.731801 0.0259123 1.7062e-10 -4.03274e-10 9.38911e-10 2.22167 -0.733487 -0.20892 -8.06378e-15 -8.04111e-14 8.58812e-15 -94.8995 14.7696 5.5935 18.0829 -10.4137 -34.7289 0.00468514 1.95081 -0.274273 6.37085e-11 -4.00796e-10 -3.10822e-10 1.09346e-10 -6.92314e-10 -5.38988e-10 6.36976e-11 -4.00795e-10 -3.10807e-10 -7.73091 5.47488 -0.417314 6.37033e-11 -4.00797e-10 -3.1082e-10 -2.90554 0.965183 -0.102902 6.3705e-11 -4.00796e-10 -3.10818e-10 -10.2786 0.731801 -0.0259123 6.371e-11 -4.00794e-10 -3.10826e-10 -2.22167 -0.733487 0.20892 -2.03217e-16 0.0 -3.88251e-19 1.55467 -21.8746 -1.17599 -0.304985 37.8798 0.736629 -3.24628 -22.0219 -5.8968 2.03217e-16 0.0 3.88251e-19 -2.5455 -19.628 2.84159 0.20935 33.9767 -0.61091 1.25774 -22.6331 1.51106
1.79962 82.6815 -108.769 0.2953 1.1842 6.3336 -1.9798 8.61395 -1.19994 3.55521 -3.57882 -0.299545 -1.42905 2.78452 0.396541 -0.455974 -0.385128 1.09832 -0.0 0.0 0.0 -0.0 0.0 0.0 -2.38069e-15 -7.98973e-14 2.84239e-14 84.1914 10.0786 4.02254 -12.081 -5.45176 21.8249 0.0006159 1.15098 0.161711 -2.13853e-11 -1.16229e-10 8.93351e-10 -3.45389e-11 -2.00326e-10 1.54463e-09 -2.1383e-11 -1.16227e-10 8.93341e-10 7.73091 5.47488 0.417314 -2.13852e-11 -1.16226e-10 8.93346e-10 2.90554 0.965183 0.102902 -2.13779e-11 -1.16226e-10 8.93342e-10 10.2786 0.731801 0.0259123 -2.13873e-11 -1.16222e-10 8.93347e-10 2.22167 -0.733487 -0.20892 -2.60344e-15 -7.9902e-14 2.81307e-14 -91.3084 15.0331 5.54192 17.793 -10.3325 -33.7522 0.002986 1.58685 -0.223071 -1.24398e-10 -4.11082e-10 -3.89311e-10 -2.16156e-10 -7.09511e-10 -6.74524e-10 -1.24414e-10 -4.1108e-10 -3.89301e-10 -7.73091 5.47488 -0.417314 -1.24407e-10 -4.11082e-10 -3.8931e-10 -2.90554 0.965183 -0.102902 -1.24402e-10 -4.1108e-10 -3.89309e-10 -10.2786 0.731801 -0.0259123 -1.24395e-10 -4.11079e-10 -3.89316e-10 -2.22167 -0.733487 0.20892 -2.03217e-16 0.0 -3.88251e-19 1.42317 -21.6523 -1.05286 -0.274551 36.7156 0.699506 -3.06275 -21.1247 -5.67244 2.03217e-16 0.0 3.88251e-19 -2.52975 -19.3189 2.84014 0.187066 32.7979 -0.577334 1.0176 -21.8565 1.02055
1.83419 82.6751 -108.71 0.5741 1.129 6.6362 -2.09463 8.65041 -1.13558 3.50984 -3.53194 -0.283711 -1.34868 2.82852 0.43523 -0.487466 -0.701544 1.15194 -0.0 0.0 0.0 -0.0 0.0 0.0 5.19301e-16 -6.51994e-14 3.55328e-14 82.2395 10.5824 3.82115 -11.9972 -5.44658 21.6044 -0.000233265 0.436114 0.061293 -1.50104e-10 9.86711e-11 6.94201e-10 -2.57638e-10 1.71788e-10 1.20082e-09 -1.50106e-10 9.86735e-11 6.94191e-10 7.73091 5.47488 0.417314 -1.50108e-10 9.86757e-11 6.94194e-10 2.90554 0.965183 0.102902 -1.501e-10 9.86757e-11 6.94189e-10 10.2786 0.731801 0.0259123 -1.50106e-10 9.86795e-11 6.94194e-10 2.22167 -0.733487 -0.20892 3.25588e-16 -6.52045e-14 3.52346e-14 -89.1426 15.3855 5.52523 17.656 -10.3215 -33.253 0.0021565 1.32587 -0.186372 -2.43576e-10 -3.17125e-10 -3.99799e-10 -4.22309e-10 -5.46753e-10 -6.92347e-10 -2.43594e-10 -3.17122e-10 -3.99793e-10 -7.73091 5.47488 -0.417314 -2.43587e-10 -3.17124e-10 -3.99799e-10 -2.90554 0.965183 -0.102902 -2.4358e-10 -3.17122e-10 -3.99798e-10 -10.2786 0.731801 -0.0259123 -2.43572e-10 -3.1712e-10 -3.99805e-10 -2.22167 -0.733487 0.20892 -2.03217e-16 0.0 -3.88251e-19 1.28887 -21.7108 -0.986734 -0.260432 36.2109 0.681646 -2.92581 -20.6876 -5.4527 2.03217e-16 0.0 3.88251e-19 -2.52994 -19.1795 2.88809 0.174103 32.0774 -0.557591 0.84279 -21.4799 0.643038
